<svg width="184" height="29" viewBox="0 0 184 29" fill="none" xmlns="http://www.w3.org/2000/svg">
<path d="M27.9797 10.1815L19.3118 8.86238L15.437 0.636359C15.3312 0.411135 15.1571 0.228812 14.942 0.117987C14.4026 -0.160861 13.7471 0.0715128 13.4774 0.636359L9.60262 8.86238L0.934678 10.1815C0.695703 10.2173 0.477212 10.3353 0.30993 10.514C0.107696 10.7317 -0.00374476 11.0245 9.60879e-05 11.3282C0.00393693 11.6318 0.122745 11.9215 0.330414 12.1335L6.60178 18.5363L5.12014 27.5774C5.0854 27.7877 5.10762 28.004 5.1843 28.2017C5.26097 28.3995 5.38903 28.5708 5.55394 28.6962C5.71886 28.8217 5.91404 28.8962 6.11735 28.9114C6.32065 28.9266 6.52396 28.8818 6.7042 28.7821L14.4572 24.5136L22.2102 28.7821C22.4219 28.9001 22.6677 28.9394 22.9032 28.8965C23.4973 28.7893 23.8967 28.1994 23.7943 27.5774L22.3126 18.5363L28.584 12.1335C28.7547 11.9583 28.8674 11.7295 28.9015 11.4793C28.9937 10.8536 28.5772 10.2745 27.9797 10.1815Z" fill="#FFC107"/>
<path d="M67.4085 10.1816L58.7405 8.86241L54.8657 0.636389C54.7599 0.411166 54.5858 0.228842 54.3707 0.118018C53.8313 -0.16083 53.1758 0.0715433 52.9061 0.636389L49.0313 8.86241L40.3634 10.1816C40.1244 10.2173 39.9059 10.3353 39.7386 10.514C39.5364 10.7317 39.425 11.0246 39.4288 11.3282C39.4326 11.6319 39.5515 11.9215 39.7591 12.1335L46.0305 18.5363L44.5489 27.5774C44.5141 27.7877 44.5363 28.004 44.613 28.2018C44.6897 28.3995 44.8177 28.5708 44.9827 28.6963C45.1476 28.8217 45.3427 28.8962 45.5461 28.9114C45.7494 28.9266 45.9527 28.8818 46.1329 28.7822L53.8859 24.5136L61.6389 28.7822C61.8506 28.9001 62.0964 28.9395 62.332 28.8966C62.926 28.7893 63.3254 28.1994 63.223 27.5774L61.7413 18.5363L68.0127 12.1335C68.1834 11.9583 68.2961 11.7295 68.3302 11.4793C68.4224 10.8537 68.0059 10.2745 67.4085 10.1816Z" fill="#FFC107"/>
<path d="M104.208 10.1816L95.5403 8.86241L91.6655 0.636389C91.5597 0.411166 91.3856 0.228842 91.1705 0.118018C90.6311 -0.16083 89.9756 0.0715433 89.7059 0.636389L85.8311 8.86241L77.1632 10.1816C76.9242 10.2173 76.7057 10.3353 76.5384 10.514C76.3362 10.7317 76.2248 11.0246 76.2286 11.3282C76.2325 11.6319 76.3513 11.9215 76.5589 12.1335L82.8303 18.5363L81.3487 27.5774C81.3139 27.7877 81.3361 28.004 81.4128 28.2018C81.4895 28.3995 81.6175 28.5708 81.7825 28.6963C81.9474 28.8217 82.1426 28.8962 82.3459 28.9114C82.5492 28.9266 82.7525 28.8818 82.9327 28.7822L90.6857 24.5136L98.4387 28.7822C98.6504 28.9001 98.8962 28.9395 99.1318 28.8966C99.7258 28.7893 100.125 28.1994 100.023 27.5774L98.5412 18.5363L104.813 12.1335C104.983 11.9583 105.096 11.7295 105.13 11.4793C105.222 10.8537 104.806 10.2745 104.208 10.1816Z" fill="#FFC107"/>
<path d="M143.637 10.1816L134.969 8.86241L131.094 0.636389C130.988 0.411166 130.814 0.228842 130.599 0.118018C130.06 -0.16083 129.404 0.0715433 129.135 0.636389L125.26 8.86241L116.592 10.1816C116.353 10.2173 116.134 10.3353 115.967 10.514C115.765 10.7317 115.653 11.0246 115.657 11.3282C115.661 11.6319 115.78 11.9215 115.988 12.1335L122.259 18.5363L120.777 27.5774C120.743 27.7877 120.765 28.004 120.842 28.2018C120.918 28.3995 121.046 28.5708 121.211 28.6963C121.376 28.8217 121.571 28.8962 121.775 28.9114C121.978 28.9266 122.181 28.8818 122.361 28.7822L130.114 24.5136L137.867 28.7822C138.079 28.9001 138.325 28.9395 138.56 28.8966C139.154 28.7893 139.554 28.1994 139.452 27.5774L137.97 18.5363L144.241 12.1335C144.412 11.9583 144.525 11.7295 144.559 11.4793C144.651 10.8537 144.234 10.2745 143.637 10.1816Z" fill="#FFC107"/>
<path d="M183.066 10.1816L174.398 8.86241L170.523 0.636389C170.417 0.411166 170.243 0.228842 170.028 0.118018C169.489 -0.16083 168.833 0.0715433 168.563 0.636389L164.689 8.86241L156.021 10.1816C155.782 10.2173 155.563 10.3353 155.396 10.514C155.194 10.7317 155.082 11.0246 155.086 11.3282C155.09 11.6319 155.209 11.9215 155.416 12.1335L161.688 18.5363L160.206 27.5774C160.171 27.7877 160.194 28.004 160.27 28.2018C160.347 28.3995 160.475 28.5708 160.64 28.6963C160.805 28.8217 161 28.8962 161.203 28.9114C161.407 28.9266 161.61 28.8818 161.79 28.7822L169.543 24.5136L177.296 28.7822C177.508 28.9001 177.754 28.9395 177.989 28.8966C178.583 28.7893 178.983 28.1994 178.88 27.5774L177.399 18.5363L183.67 12.1335C183.841 11.9583 183.953 11.7295 183.987 11.4793C184.08 10.8537 183.663 10.2745 183.066 10.1816Z" fill="#FFC107"/>
</svg>
