<svg width="20" height="13" viewBox="0 0 20 13" fill="none" xmlns="http://www.w3.org/2000/svg">
<path fill-rule="evenodd" clip-rule="evenodd" d="M18.2461 6.49978C18.2461 6.73211 18.1538 6.95492 17.9895 7.1192C17.8252 7.28348 17.6024 7.37578 17.3701 7.37578L1.60213 7.37578C1.36979 7.37578 1.14698 7.28348 0.9827 7.1192C0.818419 6.95492 0.726126 6.73211 0.726126 6.49978C0.726126 6.26745 0.818419 6.04464 0.9827 5.88035C1.14698 5.71607 1.36979 5.62378 1.60213 5.62378L17.3701 5.62378C17.6024 5.62378 17.8252 5.71607 17.9895 5.88035C18.1538 6.04464 18.2461 6.26745 18.2461 6.49978Z" fill="#07484A"/>
<path fill-rule="evenodd" clip-rule="evenodd" d="M19.7426 5.87983C19.8242 5.96121 19.8889 6.05787 19.9331 6.1643C19.9773 6.27072 20 6.38482 20 6.50004C20 6.61526 19.9773 6.72935 19.9331 6.83578C19.8889 6.94221 19.8242 7.03887 19.7426 7.12025L14.4867 12.3762C14.3222 12.5407 14.0991 12.6331 13.8664 12.6331C13.6338 12.6331 13.4107 12.5407 13.2462 12.3762C13.0817 12.2117 12.9893 11.9887 12.9893 11.756C12.9893 11.5234 13.0817 11.3003 13.2462 11.1358L17.8838 6.50004L13.2462 1.86426C13.0817 1.69977 12.9893 1.47667 12.9893 1.24405C12.9893 1.01143 13.0817 0.788331 13.2462 0.623842C13.4107 0.459353 13.6338 0.366943 13.8664 0.366943C14.0991 0.366943 14.3222 0.459353 14.4867 0.623842L19.7426 5.87983Z" fill="#07484A"/>
</svg>
